# xmcd
#
# Track frame offsets:
#	150
#	18206
#	42788
#	60364
#	81110
#	100244
#	119492
#	141912
#	161102
#	181052
#	200828
#	220656
#	240355
#
# Disc length: 3413 seconds
#
# Revision: 0
# Processed by: cddbd v1.5.2PL0 Copyright (c) Steve Scherf et al.
# Submitted via: dBpowerAMP V4.0
#
DISCID=a90d530d
DTITLE=Willie Clayton - Gifted
DYEAR=1900
DGENRE=Blues
TTITLE0=Boom boom boom
TTITLE1=Beautiful
TTITLE2=Can I change your mind
TTITLE3=When I think about cheating
TTITLE4=A little bit more
TTITLE5=my lover my friend
TTITLE6=Running out of lies
TTITLE7=She holding back
TTITLE8=missing you
TTITLE9=sweet lady
TTITLE10=dreams
TTITLE11=my miss america
TTITLE12=Trust
EXTD=
EXTT0=
EXTT1=
EXTT2=
EXTT3=
EXTT4=
EXTT5=
EXTT6=
EXTT7=
EXTT8=
EXTT9=
EXTT10=
EXTT11=
EXTT12=
PLAYORDER=
